<?xml version="1.0" encoding="UTF-8"?>
<svg id="Layer_2" data-name="Layer 2" xmlns="http://www.w3.org/2000/svg" viewBox="0 0 432.27 179.28">
  <defs>
    <style>
      .cls-1 {
        fill: #f9b712;
      }
    </style>
  </defs>
  <g id="Layer_1-2" data-name="Layer 1">
    <g>
      <g>
        <path class="cls-1" d="M96.61,66.71h5.02v10.69h-5.02c-2.69,0-5.04-1.63-5.04-3.49v-3.71c0-1.86,2.35-3.49,5.04-3.49Z"/>
        <path class="cls-1" d="M111.63,87.4h5.02c2.69,0,5.05,1.63,5.05,3.49v4.37c0,1.86-2.36,3.49-5.05,3.49h-5.02v-11.35Z"/>
      </g>
      <path class="cls-1" d="M342.63,0H89.64C40.21,0,0,40.22,0,89.64s40.21,89.64,89.64,89.64h252.99c49.43,0,89.64-40.21,89.64-89.64S392.06,0,342.63,0ZM342.63,168.28H89.64c-43.36,0-78.64-35.27-78.64-78.64S46.28,11,89.64,11h252.99c43.36,0,78.64,35.28,78.64,78.64s-35.28,78.64-78.64,78.64Z"/>
      <path class="cls-1" d="M173.4,118.62l-28.12-10.51v-22.99c0-15.4-6.24-29.34-16.33-39.43-10.09-10.09-24.03-16.33-39.43-16.33-30.79,0-55.75,24.96-55.75,55.76v23.96c0,19.88,16.11,35.99,35.99,35.99h67.57c4.39,0,7.95-3.56,7.95-7.95v-6.18l27.68-7.22c3.12-.82,3.39-4,.44-5.1ZM131.7,71.44h-10v-1.24c0-1.86-2.36-3.49-5.05-3.49h-5.02v10.69h5.02c8.3,0,15.05,6.05,15.05,13.49v4.37c0,7.43-6.75,13.49-15.05,13.49h-5.02v7.03h-10v-7.03h-5.02c-8.29,0-15.04-6.06-15.04-13.49v-3.01h10v3.01c0,1.86,2.35,3.49,5.04,3.49h5.02v-11.35h-5.02c-8.29,0-15.04-6.05-15.04-13.49v-3.71c0-7.44,6.75-13.49,15.04-13.49h5.02v-7.04h10v7.04h5.02c8.3,0,15.05,6.05,15.05,13.49v1.24Z"/>
      <g>
        <path class="cls-1" d="M203.74,90.91c-.99,0-1.62.3-1.89.9s-.41,1.99-.41,4.18c0,3.31.21,5.89.62,7.73.13.52.33.92.59,1.21.26.29.76.64,1.48,1.05,1.56.86,2.34,1.99,2.34,3.4,0,1.72-1.09,2.94-3.26,3.65s-5.85,1.07-11.04,1.07c-9.64,0-14.45-1.82-14.45-5.47,0-.62.14-1.13.43-1.5.29-.38.94-.9,1.95-1.58,1.15-.75,1.92-1.65,2.32-2.68s.68-2.81.84-5.33c.13-1.85.2-8.48.2-19.88,0-3.62-.18-6.08-.55-7.38-.36-1.3-1.15-2.25-2.34-2.85-1.15-.55-1.91-1.05-2.3-1.5-.39-.46-.59-1.05-.59-1.78,0-.96.37-1.8,1.11-2.52.74-.72,1.78-1.24,3.11-1.58,1.12-.29,2.66-.43,4.61-.43.86,0,3.01.13,6.45.39.65.05,1.68.08,3.09.08,2.34,0,5.47-.16,9.38-.47,2.47-.18,4.21-.27,5.2-.27,5.57,0,10.18,1.34,13.83,4.02,3.28,2.42,4.92,5.78,4.92,10.08,0,2.4-.57,4.58-1.72,6.54-1.15,1.97-2.72,3.44-4.73,4.43-.83.42-1.25.91-1.25,1.48,0,.76.64,1.37,1.92,1.84,2.73.99,4.74,2.49,6.02,4.49,1.28,2.01,2.19,5.08,2.73,9.22.23,1.72.57,2.83,1.02,3.34.44.51,1.47,1,3.09,1.46.5.16.91.49,1.25,1s.51,1.07.51,1.7c0,.81-.31,1.62-.94,2.44s-1.43,1.46-2.42,1.93c-2.19,1.02-5.18,1.52-8.98,1.52-5.08,0-8.71-1.34-10.9-4.02-.99-1.2-1.83-2.71-2.52-4.53-.69-1.82-1.5-4.66-2.44-8.52-.6-2.47-1.36-4.22-2.29-5.23-.92-1.02-2.25-1.56-3.97-1.64ZM201.47,70.99l-.43,9.1v.35c0,.94.14,1.56.41,1.88s.83.47,1.66.47c2.29,0,3.96-.59,5-1.78,1.04-1.18,1.56-3.08,1.56-5.68,0-5.03-1.78-7.54-5.35-7.54-1.02,0-1.73.23-2.15.7s-.65,1.3-.7,2.5Z"/>
        <path class="cls-1" d="M250.77,95.95c2.47,0,4.62.86,6.45,2.58,1.85,1.75,2.77,4,2.77,6.76,0,2.58-.92,4.75-2.77,6.52-1.82,1.72-3.97,2.58-6.45,2.58s-4.62-.86-6.45-2.58c-1.85-1.77-2.77-3.98-2.77-6.64s.92-4.92,2.77-6.64c1.82-1.69,3.97-2.55,6.45-2.58Z"/>
        <path class="cls-1" d="M280.97,60.01h20.59c2.21-.08,4.23-.38,6.05-.9.78-.21,1.47-.31,2.07-.31,2.11,0,4.16,1.56,6.15,4.69,1.99,3.12,2.99,6.34,2.99,9.65,0,2.27-.69,3.92-2.07,4.96-1.04.78-2.29,1.17-3.75,1.17-1.38,0-2.58-.38-3.59-1.15-1.02-.77-2.02-2.04-3.01-3.81-.86-1.61-1.54-2.67-2.03-3.16-.5-.49-1.09-.74-1.8-.74-.96,0-1.65.4-2.07,1.21-.42.81-.62,2.14-.62,3.98v21.88c0,2.24.23,3.87.7,4.88s1.35,1.8,2.66,2.34c1.41.6,2.36,1.17,2.87,1.7.51.53.76,1.27.76,2.21,0,1.88-1.27,3.27-3.81,4.18s-6.44,1.37-11.7,1.37c-6.46,0-11.25-.53-14.38-1.6-2.63-.89-3.95-2.32-3.95-4.3,0-1.07.47-1.9,1.41-2.5.23-.13,1.16-.44,2.77-.94.99-.29,1.67-.83,2.05-1.64.38-.81.68-2.36.92-4.65.21-2.03.4-5.32.59-9.86.18-4.54.27-8.48.27-11.82,0-2.34-.18-4.01-.55-5-.37-.99-.96-1.48-1.8-1.48-1.02,0-2.01.73-2.97,2.19-1.75,2.66-3.18,4.41-4.3,5.27-1.33,1.02-2.62,1.52-3.87,1.52-1.41,0-2.57-.53-3.48-1.58-.91-1.05-1.37-2.4-1.37-4.04s.36-3.39,1.09-5.33c.73-1.94,1.71-3.73,2.93-5.37,1.98-2.66,3.93-3.98,5.86-3.98.52,0,1.12.08,1.8.23,1.41.29,2.56.48,3.46.59.9.1,1.93.16,3.11.16Z"/>
        <path class="cls-1" d="M326.48,95.95c2.47,0,4.62.86,6.45,2.58,1.85,1.75,2.77,4,2.77,6.76,0,2.58-.92,4.75-2.77,6.52-1.82,1.72-3.97,2.58-6.45,2.58s-4.62-.86-6.45-2.58c-1.85-1.77-2.77-3.98-2.77-6.64s.92-4.92,2.77-6.64c1.82-1.69,3.97-2.55,6.45-2.58Z"/>
        <path class="cls-1" d="M365.54,90.91c-.99,0-1.62.3-1.89.9s-.41,1.99-.41,4.18c0,3.31.21,5.89.62,7.73.13.52.33.92.59,1.21.26.29.76.64,1.48,1.05,1.56.86,2.34,1.99,2.34,3.4,0,1.72-1.09,2.94-3.26,3.65s-5.85,1.07-11.04,1.07c-9.64,0-14.45-1.82-14.45-5.47,0-.62.14-1.13.43-1.5.29-.38.94-.9,1.95-1.58,1.15-.75,1.92-1.65,2.32-2.68s.68-2.81.84-5.33c.13-1.85.2-8.48.2-19.88,0-3.62-.18-6.08-.55-7.38-.36-1.3-1.15-2.25-2.34-2.85-1.15-.55-1.91-1.05-2.3-1.5-.39-.46-.59-1.05-.59-1.78,0-.96.37-1.8,1.11-2.52.74-.72,1.78-1.24,3.11-1.58,1.12-.29,2.66-.43,4.61-.43.86,0,3.01.13,6.45.39.65.05,1.68.08,3.09.08,2.34,0,5.47-.16,9.38-.47,2.47-.18,4.21-.27,5.2-.27,5.57,0,10.18,1.34,13.83,4.02,3.28,2.42,4.92,5.78,4.92,10.08,0,2.4-.57,4.58-1.72,6.54-1.15,1.97-2.72,3.44-4.73,4.43-.83.42-1.25.91-1.25,1.48,0,.76.64,1.37,1.92,1.84,2.73.99,4.74,2.49,6.02,4.49,1.28,2.01,2.19,5.08,2.73,9.22.23,1.72.57,2.83,1.02,3.34.44.51,1.47,1,3.09,1.46.5.16.91.49,1.25,1s.51,1.07.51,1.7c0,.81-.31,1.62-.94,2.44s-1.43,1.46-2.42,1.93c-2.19,1.02-5.18,1.52-8.98,1.52-5.08,0-8.71-1.34-10.9-4.02-.99-1.2-1.83-2.71-2.52-4.53-.69-1.82-1.5-4.66-2.44-8.52-.6-2.47-1.36-4.22-2.29-5.23-.92-1.02-2.25-1.56-3.97-1.64ZM363.28,70.99l-.43,9.1v.35c0,.94.14,1.56.41,1.88s.83.47,1.66.47c2.29,0,3.96-.59,5-1.78,1.04-1.18,1.56-3.08,1.56-5.68,0-5.03-1.78-7.54-5.35-7.54-1.02,0-1.73.23-2.15.7s-.65,1.3-.7,2.5Z"/>
      </g>
    </g>
  </g>
</svg>