<?xml version="1.0" encoding="UTF-8"?>
<svg id="Layer_1" data-name="Layer 1" xmlns="http://www.w3.org/2000/svg" viewBox="0 0 449.59 200.03">
  <defs>
    <style>
      .cls-1 {
        fill: #f9b712;
        stroke-width: 0px;
      }
    </style>
  </defs>
  <g>
    <path class="cls-1" d="M240.53,83.05c-2.6-4.79-6.48-8.21-11.63-10.24-3.47-1.35-8.18-2.03-14.15-2.03-1.47,0-2.72.03-3.71.08-4.69.23-8.88.35-12.62.35-.99,0-2.57-.04-4.76-.12-.99-.02-1.85-.03-2.57-.03-2.23,0-3.94.35-5.18,1.07-1.25.72-1.86,1.71-1.86,2.99,0,1.64.89,2.8,2.69,3.47,1.25.45,2.05,1.03,2.38,1.76.35.73.52,2.19.52,4.38,0,5.57-.09,11.18-.25,16.83-.17,5.66-.36,9.46-.58,11.41-.21,1.69-.48,2.83-.85,3.42-.36.59-1.06,1.01-2.11,1.27-1.1.31-1.88.72-2.37,1.23-.48.51-.71,1.22-.71,2.13,0,1.3.53,2.36,1.64,3.16,1.08.81,2.5,1.21,4.25,1.21.5,0,1.38-.05,2.65-.15,2.04-.16,3.87-.24,5.52-.24h2.81c2.39,0,5.16.06,8.32.16l4.07.12,4.71.15c3.54,0,6.88-.52,10-1.56,5.32-1.77,9.48-4.84,12.5-9.22,1.47-2.16,2.62-4.72,3.48-7.67.87-2.96,1.3-5.91,1.3-8.85,0-5.84-1.17-10.86-3.49-15.08ZM212.41,117.42c-1.63,0-2.81-.34-3.51-1.03-.71-.69-1.05-1.86-1.05-3.5v-30.23c0-1.17.25-2.01.75-2.5.51-.5,1.39-.74,2.64-.74,4.67,0,7.97,1.94,9.92,5.82,1.77,3.51,2.65,8.46,2.65,14.84,0,11.56-3.79,17.34-11.4,17.34Z"/>
    <path class="cls-1" d="M260.36,110.2c-1.82-1.72-3.96-2.58-6.44-2.58-2.48.03-4.62.89-6.45,2.58-1.85,1.72-2.76,3.93-2.76,6.64s.91,4.87,2.76,6.64c1.83,1.72,3.97,2.58,6.45,2.58s4.62-.86,6.44-2.58c1.86-1.77,2.79-3.95,2.79-6.52,0-2.76-.93-5.02-2.79-6.76Z"/>
    <path class="cls-1" d="M305.91,92.81c-1.5-.72-4.95-1.88-10.35-3.47-3.97-1.15-5.97-2.85-5.97-5.12,0-1.15.44-2.07,1.31-2.77.88-.71,2.03-1.06,3.5-1.06,3.01,0,6.08,1.46,9.21,4.38,2.22,2.05,3.64,3.29,4.3,3.71.65.42,1.5.62,2.53.62,1.25,0,2.33-.5,3.2-1.5.86-1,1.3-2.23,1.3-3.69,0-2.5-.97-5.13-2.91-7.89-1.93-2.76-3.79-4.14-5.53-4.14-.47,0-.9.07-1.33.23-1.3.47-2.07.7-2.33.7-.32,0-.74-.08-1.25-.23-4.36-1.33-7.87-1.99-10.56-1.99-6.3,0-11.63,1.83-16.01,5.5-1.96,1.59-3.47,3.48-4.54,5.65s-1.59,4.41-1.59,6.7c0,4.63,2.05,8.78,6.16,12.42,1.69,1.49,3.53,2.72,5.48,3.69,1.94.98,4.78,2.05,8.51,3.23,2.12.65,3.63,1.35,4.57,2.11.94.75,1.41,1.65,1.41,2.69,0,1.12-.61,2.04-1.8,2.75-1.19.72-2.75,1.08-4.69,1.08-2.24,0-4.41-.48-6.5-1.45-2.1-.96-3.62-2.17-4.59-3.63-2.03-3.1-3.33-4.93-3.86-5.51-.92-1.01-1.87-1.52-2.86-1.52s-1.81.42-2.47,1.25c-.52.65-.78,1.61-.78,2.89,0,2.66.5,5.38,1.51,8.18,1,2.8,2.13,4.62,3.38,5.45,1.64,1.07,4.31,2,8,2.8,3.7.79,7.23,1.19,10.55,1.19,7.49,0,13.53-1.8,18.18-5.39,4.52-3.52,6.78-8.05,6.78-13.6,0-6.27-3.32-11.03-9.96-14.26Z"/>
    <path class="cls-1" d="M335.96,110.2c-1.82-1.72-3.98-2.58-6.44-2.58-2.49.03-4.62.89-6.46,2.58-1.84,1.72-2.77,3.93-2.77,6.64s.93,4.87,2.77,6.64c1.84,1.72,3.97,2.58,6.46,2.58s4.62-.86,6.44-2.58c1.84-1.77,2.77-3.95,2.77-6.52,0-2.76-.93-5.02-2.77-6.76Z"/>
    <path class="cls-1" d="M386.4,73.83c-3.35-1.75-7.15-2.62-11.42-2.62-1.25,0-2.63.08-4.13.24-4.57.41-7.21.64-7.95.68-.74.04-3.29.07-7.61.1h-2.33c-2.49-.08-4.04-.12-4.66-.12-1.88,0-3.31.31-4.3.94-.98.62-1.47,1.52-1.47,2.69,0,1.67,1.16,2.84,3.5,3.52,1.63.44,2.62,1.02,2.97,1.74.37.71.55,2.4.55,5.06v20.54c-.05,4.82-.15,7.67-.32,8.56-.14.88-.7,1.58-1.63,2.07-1.54.78-2.51,1.38-2.94,1.8-.41.41-.62,1.01-.62,1.79,0,3.31,4.82,4.96,14.45,4.96,4.6,0,8.13-.44,10.63-1.32,2.5-.89,3.75-2.15,3.75-3.79,0-1.07-.84-2.06-2.53-2.97-1.25-.65-2.09-1.28-2.49-1.9-.39-.61-.63-1.54-.68-2.79l-.27-6.41v-.23c0-.86.38-1.29,1.13-1.29.26,0,.93.04,2,.12,2,.18,3.69.27,5.07.27,5.44,0,10.07-1.5,13.9-4.49,4.08-3.2,6.1-7.46,6.1-12.78,0-6.56-2.91-11.35-8.7-14.37ZM375.03,95.31c-1.18.97-2.62,1.45-4.35,1.45-1.14,0-2.08-.18-2.84-.55-.44-.21-.67-.82-.67-1.83v-13.29c0-1.01.97-1.52,2.89-1.52,1.78,0,3.29.48,4.54,1.45,1.98,1.51,2.96,3.96,2.96,7.34s-.84,5.57-2.53,6.95Z"/>
  </g>
  <path class="cls-1" d="M351.28,10.38H98.29C48.86,10.38,8.66,50.6,8.66,100.02s40.2,89.64,89.63,89.64h252.99c49.44,0,89.64-40.21,89.64-89.64S400.72,10.38,351.28,10.38ZM351.28,178.66H98.29c-43.36,0-78.63-35.27-78.63-78.64S54.93,21.38,98.29,21.38h252.99c43.37,0,78.64,35.28,78.64,78.64s-35.27,78.64-78.64,78.64Z"/>
  <g>
    <g>
      <path class="cls-1" d="M104.5,81.04h5.02v10.69h-5.02c-2.69,0-5.04-1.63-5.04-3.49v-3.71c0-1.86,2.35-3.49,5.04-3.49Z"/>
      <path class="cls-1" d="M119.52,101.73h5.02c2.69,0,5.05,1.63,5.05,3.49v4.37c0,1.86-2.36,3.49-5.05,3.49h-5.02v-11.35Z"/>
    </g>
    <path class="cls-1" d="M146.37,129.76c1.94,1.92,4.79,2.75,7.38,3.67,3.31,1.01,6.78,1.67,10.25,2.15,6.27.87,12.71,1.54,19.04.95.73-1.25.18-2.86-1.75-3.58l-28.12-10.51v-22.99c0-15.4-6.24-29.34-16.33-39.43-10.08-10.09-24.02-16.33-39.43-16.33-30.78,0-55.75,24.96-55.75,55.76v7.54c0,28.95,23.47,52.41,52.41,52.41h51.15c4.39,0,7.95-3.56,7.95-7.95v-6.18c8.17-.66,16.65-2.97,25.31-6.29-10.46.87-21.04-.18-31.2-3.03-2.26-.78-4.53-1.5-6.06-3.7l5-2.73s.05.14.15.24ZM139.59,85.77h-10v-1.24c0-1.86-2.36-3.49-5.05-3.49h-5.02v10.69h5.02c8.3,0,15.05,6.05,15.05,13.49v4.37c0,7.43-6.75,13.49-15.05,13.49h-5.02v7.03h-10v-7.03h-5.01c-8.3,0-15.05-6.06-15.05-13.49v-3.01h10v3.01c0,1.86,2.36,3.49,5.05,3.49h5.01v-11.35h-5.01c-8.3,0-15.05-6.05-15.05-13.49v-3.71c0-7.44,6.75-13.49,15.05-13.49h5.01v-7.04h10v7.04h5.02c8.3,0,15.05,6.05,15.05,13.49v1.24Z"/>
  </g>
</svg>