<?xml version="1.0" encoding="UTF-8"?>
<svg id="Layer_1" data-name="Layer 1" xmlns="http://www.w3.org/2000/svg" viewBox="0 0 200.47 200.03">
  <defs>
    <style>
      .cls-1 {
        fill: #f9b712;
      }

      .cls-1, .cls-2 {
        stroke-width: 0px;
      }

      .cls-2 {
        fill: #191919;
      }
    </style>
  </defs>
  <circle class="cls-1" cx="100.24" cy="100.02" r="97.7"/>
  <g>
    <path class="cls-2" d="M136.66,79.93v-1.37c0-8.28-7.52-15.02-16.76-15.02h-5.58v-7.84h-11.14v7.84h-5.57c-9.24,0-16.76,6.74-16.76,15.02v4.12c0,8.29,7.52,15.02,16.76,15.02h5.57v12.64h-5.57c-3,0-5.63-1.82-5.63-3.88v-3.36h-11.13v3.36c0,8.27,7.52,15.01,16.76,15.01h5.57v7.82h11.14v-7.82h5.58c9.24,0,16.76-6.74,16.76-15.01v-4.87c0-8.28-7.52-15.01-16.76-15.01h-5.58v-11.91h5.58c3,0,5.62,1.82,5.62,3.89v1.37h11.14ZM103.19,86.57h-5.59c-2.99,0-5.61-1.82-5.61-3.88v-4.13c0-2.07,2.62-3.88,5.61-3.88h5.59v11.9ZM119.91,97.7c2.99,0,5.62,1.82,5.62,3.88v4.87c0,2.07-2.63,3.88-5.62,3.88h-5.59v-12.64h5.59Z"/>
    <path class="cls-2" d="M100.24,1.82C46.01,1.82,2.04,45.79,2.04,100.02s43.97,98.2,98.2,98.2,98.2-43.96,98.2-98.2S154.46,1.82,100.24,1.82ZM145.22,135.79c11.3,3.17,23.09,4.35,34.73,3.38-9.63,3.7-19.08,6.27-28.18,7.01v6.87c0,4.89-3.96,8.86-8.85,8.86h-56.95c-32.23,0-58.35-26.12-58.35-58.35v-8.39c0-34.29,27.8-62.08,62.07-62.08,17.16,0,32.67,6.96,43.9,18.19,11.23,11.23,18.18,26.75,18.18,43.9v25.6l31.31,11.7c2.14.8,2.76,2.6,1.95,3.98-7.05.66-14.22-.08-21.2-1.05-3.86-.54-7.72-1.27-11.41-2.4-2.88-1.02-6.06-1.95-8.22-4.08-.11-.11-.15-.21-.16-.27l-5.57,3.04c1.71,2.45,4.24,3.26,6.75,4.11Z"/>
  </g>
</svg>